<svg xmlns="http://www.w3.org/2000/svg" viewBox="0 0 105.83 125.99"><defs><style>.cls-1{fill:#febe12;}.cls-2{fill:#7155a3;}.cls-3{font-size:81.54px;fill:#fff;font-family:Montserrat-Regular, Montserrat;}</style></defs><g id="Layer_2" data-name="Layer 2"><g id="Layer_1-2" data-name="Layer 1"><path class="cls-1" d="M105.83,19.5v.41c0,44.54-21.09,83.68-52.91,106.08C21.09,103.6,0,64.45,0,19.91v-.39a105.25,105.25,0,0,0,21.92-4.26A109.47,109.47,0,0,0,52.92,0a109.85,109.85,0,0,0,31,15.26A103.79,103.79,0,0,0,105.83,19.5Z"/><path class="cls-2" d="M100.33,24v.36c0,39.92-18.89,75-47.41,95.07C24.4,99.38,5.5,64.3,5.5,24.38V24a94.43,94.43,0,0,0,19.64-3.82A97.83,97.83,0,0,0,52.92,6.55a98.07,98.07,0,0,0,27.8,13.67A92.84,92.84,0,0,0,100.33,24Z"/><text class="cls-3" transform="translate(41.75 87.44)">i</text></g></g></svg>